# AST/ASF file generated using VICON BodyLanguage
# -----------------------------------------------
:version 1.10
:name VICON
:units
  mass 1.0
  length 0.45
  angle deg
:documentation
   .ast/.asf automatically generated from VICON data using
   VICON BodyBuilder and BodyLanguage model FoxedUp or BRILLIANT.MOD
:root
   order TX TY TZ RX RY RZ
   axis XYZ
   position 0 0 0  
   orientation 0 0 0 
:bonedata
  begin
     id 1 
     name lhipjoint
     direction 0.625129 -0.738222 0.253461 
     length 2.5165 
     axis 0 0 0  XYZ
  end
  begin
     id 2 
     name lfemur
     direction 0.34202 -0.939693 0  
     length 7.54288  
     axis 0 0 20  XYZ
    dof rx ry rz
    limits (-160.0 20.0)
           (-70.0 70.0)
           (-60.0 70.0)
  end
  begin
     id 3 
     name ltibia
     direction 0.34202 -0.939693 0   
     length 7.71864   
     axis 0 0 20   XYZ
    dof rx
    limits (-10.0 170.0)
  end
  begin
     id 4 
     name lfoot
     direction 0.0772037 -0.212115 0.97419   
     length 2.18429   
     axis -90 7.62852e-016 20   XYZ
    dof rx rz
    limits (-45.0 90.0)
           (-70.0 20.0)
  end
  begin
     id 5 
     name ltoes
     direction 1.53513e-011 -4.21834e-011 1   
     length 1.09718   
     axis -90 7.62852e-016 20   XYZ
    dof rx
    limits (-90.0 20.0)
  end
  begin
     id 6 
     name rhipjoint
     direction -0.621946 -0.740623 0.254285   
     length 2.50835  
     axis 0 0 0  XYZ 
  end
  begin
     id 7 
     name rfemur
     direction -0.34202 -0.939693 0   
     length 7.43366   
     axis 0 0 -20   XYZ
    dof rx ry rz
    limits (-160.0 20.0)
           (-70.0 70.0)
           (-70.0 60.0)
  end
  begin
     id 8 
     name rtibia
     direction -0.34202 -0.939693 0   
     length 7.77122   
     axis 0 0 -20   XYZ
    dof rx
    limits (-10.0 170.0)
 end
 begin
     id 9 
     name rfoot
     direction -0.082694 -0.2272 0.970331   
     length 2.2293  
     axis -90 -7.62852e-016 -20   XYZ
    dof rx rz
    limits (-45.0 90.0)
           (-20.0 70.0)
  end
  begin
     id 10 
     name rtoes
     direction -1.53565e-011 -4.21695e-011 1   
     length 1.1178   
     axis -90 -7.62852e-016 -20   XYZ
    dof rx
    limits (-90.0 20.0)
  end
  begin
     id 11 
     name lowerback
     direction -0.000695208 0.988391 -0.151929   
     length 1.95077   
     axis 0 0 0   XYZ
    dof rx ry rz
    limits (-20.0 45.0)
           (-30.0 30.0)
           (-30.0 30.0)
  end
  begin
     id 12 
     name upperback
     direction -0.00268925 0.999885 -0.0149203   
     length 1.96246   
     axis 0 0 0   XYZ
    dof rx ry rz
    limits (-20.0 45.0)
           (-30.0 30.0)
           (-30.0 30.0)
  end
  begin
     id 13 
     name thorax
     direction -0.000848408 0.998481 0.0550912   
     length 2.00867   
     axis 0 0 0   XYZ
    dof rx ry rz
    limits (-20.0 45.0)
           (-30.0 30.0)
           (-30.0 30.0)
  end
  begin
     id 14 
     name lowerneck
     direction -0.00577709 0.998999 0.0443608   
     length 1.75762   
     axis 0 0 0   XYZ
    dof rx ry rz
    limits (-20.0 45.0)
           (-30.0 30.0)
           (-30.0 30.0)
  end
  begin
     id 15 
     name upperneck
     direction 0.0320945 0.999136 0.0264105   
     length 1.72601   
     axis 0 0 0   XYZ
    dof rx ry rz
    limits (-20.0 45.0)
           (-30.0 30.0)
           (-30.0 30.0)
  end
  begin
     id 16
     name head
     direction 0.0120552 0.999916 0.00480151  
     length 1.79973  
     axis 0 0 0   XYZ
    dof rx ry rz
    limits (-20.0 45.0)
           (-30.0 30.0)
           (-30.0 30.0)
  end
  begin
     id 17 
     name lclavicle
     direction 0.909 0.371533 -0.188897  
     length 3.47956  
     axis 0 0 0   XYZ
    dof ry rz
    limits (-20.0 10.0)
           (0.0 20.0)
  end
  begin
     id 18 
     name lhumerus
     direction 1 -4.48963e-011 -6.48352e-028   
     length 5.52302   
     axis 180 -30 -90   XYZ
    dof rx ry rz
    limits (-60.0 90.0)
           (-90.0 90.0)
           (-90.0 90.0)
  end
  begin
     id 19
     name lradius
     direction 1 -4.48968e-011 -4.78536e-027   
     length 3.58675   
     axis 180 -30 -90   XYZ
    dof rx
    limits (-10.0 170.0)
  end
  begin
     id 20
     name lwrist
     direction 1 -4.48942e-011 -9.9435e-027   
     length 1.79337   
     axis 8.54312e-015 90 90   XYZ
    dof ry
    limits (-180.0 0.0)
 end
  begin
     id 21 
     name lhand
     direction 1 -4.4904e-011 -1.9887e-026   
     length 0.536412   
     axis 1.26896e-014 90 90   XYZ
    dof rx rz
    limits (-90.0 90.0)
           (-45.0 45.0)
  end
  begin
     id 22 
     name lfingers
     direction 1 -4.48893e-011 -3.9774e-026   
     length 0.432469   
     axis 2.53792e-014 90 90   XYZ
    dof rx
    limits (0.0 90.0)
  end
  begin
     id 23
     name lthumb
     direction 0.707107 -6.34934e-011 0.707107   
     length 0.620942   
     axis -90 45 2.85299e-015   XYZ
    dof rx rz
    limits (-45.0 45.0)
           (-45.0 45.0)
  end
  begin
     id 24 
     name rclavicle
     direction -0.89595 0.416672 -0.153813   
     length 3.44099  
     axis 0 0 0   XYZ 
    dof ry rz
    limits (-10.0 20.0)
           (-20.0 0.0)
  end
  begin
     id 25 
     name rhumerus
     direction -1 -4.48952e-011 5.57804e-028  
     length 5.8478   
     axis 180 30 90   XYZ
    dof rx ry rz
    limits (-90.0 60.0)
           (-90.0 90.0)
           (-90.0 90.0)
  end
  begin
     id 26 
     name rradius
     direction -1 -4.48967e-011 -7.93646e-027   
     length 3.62717   
     axis 180 30 90   XYZ
    dof rx
    limits (-10.0 170.0)
  end
  begin
     id 27 
     name rwrist
     direction -1 -4.49008e-011 -9.9435e-027   
     length 1.81359   
     axis 8.54312e-015 -90 -90   XYZ
    dof ry
    limits (-180.0 0.0)
  end
  begin
     id 28
     name rhand
     direction -1 -4.48812e-011 -1.9887e-026   
     length 0.650516   
     axis 1.26896e-014 -90 -90   XYZ
    dof rx rz
    limits (-90.0 90.0)
           (-45.0 45.0)
  end
  begin
     id 29
     name rfingers
     direction -1 -4.49228e-011 -3.9774e-026   
     length 0.524463   
     axis 2.53792e-014 -90 -90   XYZ
    dof rx
    limits (0.0 90.0)
  end
  begin
     id 30
     name rthumb
     direction -0.707107 -6.34912e-011 0.707107   
     length 0.753027   
     axis -90 -45 -2.85299e-015   XYZ
    dof rx rz
    limits (-45.0 45.0)
           (-45.0 45.0)
  end
:hierarchy
  begin
    root lhipjoint rhipjoint lowerback
    lhipjoint lfemur
    lfemur ltibia
    ltibia lfoot
    lfoot ltoes
    rhipjoint rfemur
    rfemur rtibia
    rtibia rfoot
    rfoot rtoes
    lowerback upperback
    upperback thorax
    thorax lowerneck lclavicle rclavicle
    lowerneck upperneck
    upperneck head
    lclavicle lhumerus
    lhumerus lradius
    lradius lwrist
    lwrist lhand lthumb
    lhand lfingers
    rclavicle rhumerus
    rhumerus rradius
    rradius rwrist
    rwrist rhand rthumb
    rhand rfingers
  end

#!OML:ASF F:\VICON\USERDATA\INSTALL\rory3\rory3.ASF
:FULLY-SPECIFIED
:DEGREES
1499
root -8.77254 17.8677 30.7521 -190.096 185.852 -180.359
lowerback 10.0785 -1.5256 -4.32248
upperback 2.00427 -2.60855 -2.97145
thorax -3.507 -1.26461 -0.323128
lowerneck -3.63129 -1.66628 -0.191491
upperneck 7.33088 -2.74885 6.65428
head 3.11587 -1.14546 2.10893
rclavicle -1.36664e-014 -3.18055e-014
rhumerus -43.9215 -18.729 -71.3058
rradius 14.6828
rwrist 32.405
rhand -14.5802 17.4259
rfingers 7.12502
rthumb 11.5696 -12.2347
lclavicle -1.36664e-014 -3.18055e-014
lhumerus -16.9169 -0.682456 87.1859
lradius 34.2661
lwrist 8.91266
lhand -34.1072 14.3867
lfingers 7.12502
lthumb -7.28304 44.2413
rfemur -15.3646 6.5686 17.0831
rtibia 47.1776
rfoot -6.24027 -8.20072
rtoes -7.74495
lfemur 5.29585 -5.71572 -22.7187
ltibia 23.2964
lfoot -11.2845 -5.81746
ltoes -4.76887
1500
root -8.76389 17.8669 30.6327 -190.24 185.15 -180.093
lowerback 10.1206 -1.50192 -4.57273
upperback 1.91902 -2.61403 -3.06262
thorax -3.61228 -1.26194 -0.275051
lowerneck -3.50049 -1.8204 -0.118964
upperneck 7.46956 -2.94932 6.43702
head 3.13907 -1.24945 2.01638
rclavicle -4.92986e-014 2.22639e-014
rhumerus -43.8011 -18.4738 -71.2756
rradius 14.8398
rwrist 32.0549
rhand -15.2155 17.548
rfingers 7.12502
rthumb 10.9569 -12.1461
lclavicle -4.92986e-014 2.22639e-014
lhumerus -17.2157 -0.554763 87.3407
lradius 34.2266
lwrist 8.88881
lhand -34.1041 14.9445
lfingers 7.12502
lthumb -7.28006 44.7993
rfemur -14.9003 5.6999 16.6203
rtibia 49.0813
rfoot -6.34177 -7.31032
rtoes -7.83948
lfemur 5.04059 -5.76096 -22.9851
ltibia 23.2187
lfoot -11.0459 -6.20273
ltoes -4.41324
1501
root -8.75714 17.8631 30.5097 -190.31 184.485 -179.972
lowerback 10.1454 -1.48942 -4.7776
upperback 1.85995 -2.62197 -3.02999
thorax -3.67658 -1.26115 -0.124321
lowerneck -3.42183 -1.94476 -0.208721
upperneck 7.43808 -3.09607 6.30178
head 3.11724 -1.33124 1.98126
rclavicle 1.15792e-014 -1.74931e-014
rhumerus -43.5944 -18.0819 -71.1316
rradius 15.1467
rwrist 31.3624
rhand -15.5029 17.5692
rfingers 7.12502
rthumb 10.6797 -12.1393
lclavicle 1.15792e-014 -1.74931e-014
lhumerus -17.3753 -0.442137 87.5071
lradius 34.0859
lwrist 8.97172
lhand -34.1389 14.9933
lfingers 7.12502
lthumb -7.31364 44.8469
rfemur -14.5021 5.02786 16.3538
rtibia 50.9588
rfoot -6.48276 -6.61011
rtoes -7.51635
lfemur 4.68579 -5.72401 -23.0593
ltibia 23.143
lfoot -10.7997 -6.60434
ltoes -4.29282
1502
root -8.75811 17.8719 30.3786 -190.075 183.973 -180.076
lowerback 10.0599 -1.5309 -4.89119
upperback 1.86466 -2.67832 -2.94767
thorax -3.61313 -1.28842 0.0288293
lowerneck -4.00479 -1.99985 -0.250923
upperneck 7.48259 -3.18578 6.37673
head 3.2502 -1.36273 2.00892
rclavicle 8.49804e-015 -1.43125e-014
rhumerus -42.8335 -17.7291 -71.3718
rradius 15.411
rwrist 30.3878
rhand -15.6593 17.2647
rfingers 7.12502
rthumb 10.5289 -12.4516
lclavicle 8.49804e-015 -1.43125e-014
lhumerus -17.198 -0.332833 87.3731
lradius 33.9865
lwrist 9.07864
lhand -34.0557 15.2246
lfingers 7.12502
lthumb -7.23329 45.081
rfemur -14.436 4.63838 16.4218
rtibia 52.6998
rfoot -6.36514 -6.1166
rtoes -7.25258
lfemur 3.86828 -5.85658 -22.8203
ltibia 23.0666
lfoot -10.2641 -6.92085
ltoes -0.979112
1503
root -8.76074 17.8816 30.2545 -189.965 183.515 -179.909
lowerback 9.99453 -1.49923 -5.19845
upperback 1.8844 -2.66425 -3.00097
thorax -3.54509 -1.27974 0.140236
lowerneck -4.37234 -2.03991 -0.32455
upperneck 7.40515 -3.25286 6.58569
head 3.30452 -1.38541 2.08804
rclavicle 8.34896e-015 2.22639e-014
rhumerus -42.1139 -17.539 -71.6909
rradius 15.5835
rwrist 29.7791
rhand -16.1802 17.2435
rfingers 7.12502
rthumb 10.0263 -12.4976
lclavicle 8.34896e-015 2.22639e-014
lhumerus -17.0528 -0.351453 87.1721
lradius 33.7413
lwrist 9.04396
lhand -34.3022 15.4176
lfingers 7.12502
lthumb -7.47126 45.2657
rfemur -14.1609 4.18109 16.1928
rtibia 54.3105
rfoot -6.23326 -5.5316
rtoes -7.58231
lfemur 3.15989 -6.0994 -22.9245
ltibia 23.0267
lfoot -9.6809 -7.12668
ltoes 3.63231
1504
root -8.76358 17.889 30.1359 -190.121 183.333 -180.317
lowerback 10.0255 -1.40383 -4.8641
upperback 1.89801 -2.49869 -2.87563
thorax -3.56308 -1.20051 0.0644984
lowerneck -4.23899 -2.14807 -0.427793
upperneck 7.32428 -3.38507 6.60713
head 3.2597 -1.45723 2.10794
rclavicle -2.48481e-015 4.13472e-014
rhumerus -41.6545 -17.2822 -71.7888
rradius 15.6324
rwrist 29.291
rhand -16.6694 17.0527
rfingers 7.12502
rthumb 9.55428 -12.7106
lclavicle -2.48481e-015 4.13472e-014
lhumerus -17.158 -0.404752 87.0557
lradius 33.3444
lwrist 8.96391
lhand -34.3749 15.2389
lfingers 7.12502
lthumb -7.54148 45.0845
rfemur -13.4435 3.94693 16.6951
rtibia 55.72
rfoot -5.77423 -5.0876
rtoes -7.22739
lfemur 2.93681 -6.27458 -22.4399
ltibia 22.9638
lfoot -9.4972 -7.119
ltoes 5.558
1505
root -8.76351 17.8933 30.011 -190.204 183.098 -180.823
lowerback 9.98209 -1.36401 -4.33266
upperback 1.90011 -2.38181 -2.75474
thorax -3.55746 -1.14792 -0.122101
lowerneck -4.2325 -2.30739 -0.498972
upperneck 7.46277 -3.59817 6.5526
head 3.31526 -1.56392 2.09434
rclavicle -4.96962e-017 4.77083e-015
rhumerus -41.1683 -16.98 -71.8854
rradius 15.6644
rwrist 28.8359
rhand -17.244 16.6138
rfingers 7.12502
rthumb 8.99987 -13.1743
lclavicle -4.96962e-017 4.77083e-015
lhumerus -17.2658 -0.411535 86.876
lradius 32.8991
lwrist 8.95153
lhand -34.5485 15.3076
lfingers 7.12502
lthumb -7.70897 45.1471
rfemur -12.7737 3.68225 17.3025
rtibia 56.9929
rfoot -4.85272 -4.66359
rtoes -6.52131
lfemur 2.72332 -6.43385 -21.8632
ltibia 22.7423
lfoot -9.27249 -7.1051
ltoes 5.74961
1506
root -8.75922 17.8981 29.8882 -190.308 182.515 -180.735
lowerback 9.82356 -1.31943 -4.21586
upperback 2.03263 -2.29965 -2.91395
thorax -3.34505 -1.11386 -0.369001
lowerneck -4.38658 -2.48845 -0.49628
upperneck 7.43472 -3.85086 6.65229
head 3.34901 -1.68313 2.1153
rclavicle 8.49804e-015 1.27222e-014
rhumerus -40.749 -16.9745 -72.0154
rradius 16.1202
rwrist 28.4006
rhand -17.5734 15.9875
rfingers 7.12502
rthumb 8.68204 -13.8139
lclavicle 8.49804e-015 1.27222e-014
lhumerus -17.1475 -0.707045 86.6211
lradius 32.4524
lwrist 9.0452
lhand -34.5965 15.8481
lfingers 7.12502
lthumb -7.7553 45.6858
rfemur -11.9998 3.10479 17.1327
rtibia 58.1684
rfoot -3.96422 -4.14218
rtoes -5.66405
lfemur 2.47767 -6.61701 -22.0046
ltibia 22.4043
lfoot -8.7421 -7.23254
ltoes 5.13037
1507
root -8.75713 17.911 29.772 -190.412 181.998 -180.538
lowerback 9.7422 -1.24407 -4.25557
upperback 2.0726 -2.20193 -3.07032
thorax -3.26531 -1.06707 -0.52374
lowerneck -4.18545 -2.64897 -0.639782
upperneck 7.18203 -4.05582 6.87658
head 3.24395 -1.79019 2.20748
rclavicle 1.45113e-014 1.90833e-014
rhumerus -40.3807 -16.9518 -72.1671
rradius 16.5172
rwrist 27.9885
rhand -18.0092 15.903
rfingers 7.12502
rthumb 8.2615 -13.9155
lclavicle 1.45113e-014 1.90833e-014
lhumerus -17.1623 -0.72693 86.3403
lradius 31.9319
lwrist 8.77933
lhand -34.7351 15.6712
lfingers 7.12502
lthumb -7.88911 45.504
rfemur -11.2035 2.69376 16.8769
rtibia 59.2266
rfoot -2.99117 -3.63111
rtoes -5.23377
lfemur 2.23997 -6.75371 -22.2638
ltibia 22.0715
lfoot -8.30903 -7.23675
ltoes 3.73415
1508
root -8.75957 17.9208 29.6463 -190.299 181.677 -180.422
lowerback 9.66991 -1.15139 -4.3282
upperback 1.90634 -2.09234 -3.13669
thorax -3.40059 -1.00839 -0.565198
lowerneck -3.53106 -2.75647 -0.813565
upperneck 6.74545 -4.16628 7.06515
head 2.98695 -1.86599 2.29963
rclavicle 2.98177e-015 1.59028e-015
rhumerus -39.8781 -16.7528 -72.2974
rradius 16.4072
rwrist 27.5649
rhand -18.6633 16.4961
rfingers 7.12502
rthumb 7.63017 -13.3462
lclavicle 2.98177e-015 1.59028e-015
lhumerus -17.3384 -0.527275 86.0156
lradius 31.3225
lwrist 8.44752
lhand -34.9419 15.685
lfingers 7.12502
lthumb -8.08866 45.5102
rfemur -10.7347 2.42794 16.7457
rtibia 60.2116
rfoot -1.77104 -3.07738
rtoes -5.28703
lfemur 1.80647 -6.8753 -22.3323
ltibia 21.6936
lfoot -7.82886 -7.27418
ltoes 3.87089
1509
root -8.76841 17.9226 29.5175 -190.27 181.529 -180.886
lowerback 9.60422 -1.05113 -3.87498
upperback 1.85958 -1.90648 -3.00964
thorax -3.42709 -0.919433 -0.709976
lowerneck -3.24002 -2.82304 -0.935338
upperneck 6.53809 -4.2387 7.16936
head 2.8725 -1.91213 2.35502
rclavicle -3.42904e-015 4.77083e-015
rhumerus -39.362 -16.5415 -72.3654
rradius 16.5175
rwrist 27.1491
rhand -18.768 15.8442
rfingers 7.12502
rthumb 7.52913 -14.0018
lclavicle -3.42904e-015 4.77083e-015
lhumerus -17.2777 -0.401648 85.6968
lradius 30.5288
lwrist 8.13917
lhand -35.0131 16.7451
lfingers 7.12502
lthumb -8.15742 46.5677
rfemur -10.0948 2.34003 17.4056
rtibia 61.0541
rfoot -0.532472 -2.77258
rtoes -5.79617
lfemur 1.52488 -6.79493 -21.6897
ltibia 21.2408
lfoot -7.33121 -7.55851
ltoes 3.83553
1510
root -8.77325 17.9287 29.3973 -190.392 181.2 -181.131
lowerback 9.6013 -0.958219 -3.55355
upperback 1.91522 -1.74706 -2.9947
thorax -3.37909 -0.844406 -0.894312
lowerneck -3.39491 -2.93682 -0.894421
upperneck 6.58763 -4.40115 7.19765
head 2.92588 -1.98648 2.34989
rclavicle 0 -2.06736e-014
rhumerus -38.858 -16.4902 -72.4754
rradius 16.8097
rwrist 26.783
rhand -18.5655 14.6025
rfingers 7.12502
rthumb 7.72457 -15.2364
lclavicle 0 -2.06736e-014
lhumerus -17.0721 -0.190744 85.3522
lradius 29.5584
lwrist 7.70169
lhand -35.3425 16.8045
lfingers 7.12502
lthumb -8.47529 46.6144
rfemur -9.19056 2.15427 17.795
rtibia 61.7637
rfoot 0.737436 -2.42059
rtoes -6.31323
lfemur 1.38944 -6.68997 -21.3398
ltibia 20.7789
lfoot -6.71119 -8.06337
ltoes 3.71658
1511
root -8.7672 17.9313 29.2732 -190.304 180.555 -180.767
lowerback 9.46557 -0.937281 -3.70635
upperback 1.83954 -1.73726 -3.1931
thorax -3.38439 -0.838042 -1.018
lowerneck -3.35608 -3.10018 -0.950227
upperneck 6.53303 -4.6215 7.30571
head 2.91642 -2.09595 2.38797
rclavicle 6.41081e-015 -1.59028e-015
rhumerus -38.5298 -16.3248 -72.5414
rradius 17.2099
rwrist 26.3334
rhand -18.4246 15.2097
rfingers 7.12502
rthumb 7.8605 -14.6242
lclavicle 6.41081e-015 -1.59028e-015
lhumerus -17.0436 0.0587006 84.9227
lradius 28.5832
lwrist 7.25021
lhand -35.449 16.9824
lfingers 7.12502
lthumb -8.57808 46.7881
rfemur -8.4598 1.62117 17.2992
rtibia 62.394
rfoot 1.82067 -1.61144
rtoes -7.08201
lfemur 0.964738 -6.70223 -21.7282
ltibia 20.3772
lfoot -5.95797 -8.59224
ltoes 3.56053
1512
root -8.76959 17.9243 29.142 -190.3 180.135 -180.516
lowerback 9.44864 -0.890287 -3.90473
upperback 1.79454 -1.69849 -3.27539
thorax -3.41887 -0.816157 -0.997228
lowerneck -3.29854 -3.24895 -1.01509
upperneck 6.50923 -4.80805 7.20588
head 2.90479 -2.19493 2.359
rclavicle -1.18774e-014 -3.65764e-014
rhumerus -38.0082 -16.0087 -72.6511
rradius 17.5202
rwrist 25.8122
rhand -18.7521 16.5324
rfingers 7.12502
rthumb 7.54445 -13.3131
lclavicle -1.18774e-014 -3.65764e-014
lhumerus -16.9646 0.600376 84.4469
lradius 27.5346
lwrist 6.7011
lhand -34.9824 18.695
lfingers 7.12502
lthumb -8.12775 48.5187
rfemur -7.61129 1.31635 17.0455
rtibia 62.9104
rfoot 2.94416 -0.747293
rtoes -6.76908
lfemur 0.734226 -7.03448 -21.967
ltibia 19.8772
lfoot -5.44759 -8.45398
ltoes 1.86728
